<svg xmlns="http://www.w3.org/2000/svg" viewBox="0 0 500 500" width="500" height="500">
    <defs>
        <filter id="neon-glow" x="-20%" y="-20%" width="140%" height="140%">
            <feDropShadow dx="0" dy="0" stdDeviation="8" flood-color="#3de09c" flood-opacity="0.7" />
        </filter>

        <mask id="logo-mask">
            <!-- Base Phone Outline -->
            <rect x="150" y="80" width="200" height="380" rx="30" fill="white" />

            <!-- Inner Screen Cutout -->
            <rect x="175" y="140" width="150" height="260" rx="10" fill="black" />

            <!-- Right Frame Gap Cutout -->
            <rect x="310" y="210" width="50" height="128" fill="black" />

            <!-- Speaker Cutout -->
            <rect x="230" y="105" width="40" height="8" rx="4" fill="black" />

            <!-- Home Button Cutout -->
            <rect x="230" y="430" width="40" height="12" rx="6" fill="black" />

            <!-- Server Racks (Drawn over the screen to extend inside) -->
            <rect x="260" y="215" width="155" height="32" rx="8" fill="white" />
            <rect x="260" y="258" width="155" height="32" rx="8" fill="white" />
            <rect x="260" y="301" width="155" height="32" rx="8" fill="white" />

            <!-- Server 1 Cutouts -->
            <rect x="275" y="226" width="30" height="10" rx="3" fill="black" />
            <circle cx="369" cy="231" r="3.5" fill="black" />
            <circle cx="382" cy="231" r="3.5" fill="black" />
            <circle cx="395" cy="231" r="3.5" fill="black" />

            <!-- Server 2 Cutouts -->
            <rect x="275" y="269" width="30" height="10" rx="3" fill="black" />
            <circle cx="369" cy="274" r="3.5" fill="black" />
            <circle cx="382" cy="274" r="3.5" fill="black" />
            <circle cx="395" cy="274" r="3.5" fill="black" />

            <!-- Server 3 Cutouts -->
            <rect x="275" y="312" width="30" height="10" rx="3" fill="black" />
            <circle cx="369" cy="317" r="3.5" fill="black" />
            <circle cx="382" cy="317" r="3.5" fill="black" />
            <circle cx="395" cy="317" r="3.5" fill="black" />
        </mask>
    </defs>

    <!-- Signal Waves -->
    <g stroke="#1d3b2a" stroke-width="14" stroke-linecap="round" fill="none" opacity="0.8">
        <!-- Left Waves -->
        <path d="M 180,40 A 70,70 0 0,0 90,110" />
        <path d="M 150,15 A 110,110 0 0,0 50,120" />

        <!-- Right Waves -->
        <path d="M 320,40 A 70,70 0 0,1 410,110" />
        <path d="M 350,15 A 110,110 0 0,1 450,120" />
    </g>

    <!-- Main Icon Elements -->
    <g filter="url(#neon-glow)">
        <rect x="0" y="0" width="500" height="500" fill="#3de09c" mask="url(#logo-mask)" />
    </g>
</svg>
